<svg width="469" height="437" viewBox="0 0 469 437" fill="none" xmlns="http://www.w3.org/2000/svg">
<path fill-rule="evenodd" clip-rule="evenodd" d="M2.19805 5.60118C-2.48752 12.7562 -0.0293327 22.2582 12.9428 47.1641C19.6451 60.0329 23.1363 70.947 27.2841 91.9953C30.298 107.298 33.9886 122.839 35.481 126.529C38.9946 135.203 51.2138 148.68 61.1228 154.804L68.9208 159.625L61.0152 167.742C49.1792 179.896 43.3082 195.105 42.1363 216.65C39.0327 273.662 66.4089 348.678 108.427 398.302C123.178 415.725 138.048 423.553 138.039 413.892C138.037 412.424 131.039 400.929 122.488 388.349C108.164 367.281 102.233 354.484 102.202 344.585C102.186 339.755 113.704 315.956 116.057 315.956C117.009 315.956 118.398 318.731 119.147 322.12C126.741 356.616 141.676 394.457 153.019 407.943C165.42 422.683 165.671 414.085 153.906 377.796C143.471 345.609 139.484 326.377 143.574 327.948C145.075 328.524 151.948 329.701 158.845 330.562L171.389 332.131L179.548 358.039C189.332 389.118 206.183 428.381 211.993 433.642C216.674 437.881 220.956 436.475 220.945 430.703C220.941 428.619 217.443 415.535 213.169 401.626C206.669 380.47 196.303 334.633 196.303 327.049C196.303 325.879 199.108 324.922 202.537 324.922C205.965 324.922 214.014 323.562 220.421 321.898C230.811 319.204 232.185 319.264 233.146 322.459C236.286 332.895 238.878 368.276 238.878 400.702C238.878 439.721 240.369 444.045 248.256 427.913C254.88 414.365 257.379 386.22 258.79 309.231L260.166 234.139L270.443 216.207C276.094 206.344 281.734 195.773 282.973 192.717L285.228 187.158L288.047 192.426C298.101 211.221 302.596 317.664 296.105 383.272C293.974 404.809 292.578 425.378 293.003 428.982C293.94 436.892 298.209 438.894 301.404 432.923C305.373 425.505 312.808 388.45 316.964 355.389C320.328 328.618 321.511 323.831 324.722 323.987C326.806 324.091 333.166 324.344 338.855 324.548L349.201 324.922L347.639 340.053C346.781 348.376 344.141 363.999 341.777 374.772C336.921 396.887 336.46 403.377 339.749 403.377C345.954 403.377 356.051 377.159 362.957 343.112C364.804 334.007 367.502 325.433 368.954 324.059C371.896 321.271 370.697 356.324 366.229 403.776C363.833 429.188 364.353 437 368.436 437C371.333 437 377.319 422.219 381.012 405.948C382.789 398.113 385.982 375.738 388.108 356.225C391.745 322.846 392.274 320.67 397.009 319.48C399.776 318.785 403.46 317.673 405.192 317.007C407.83 315.994 408.04 318.648 406.488 333.25C405.466 342.848 403.138 359.274 401.311 369.753C397.107 393.881 397.029 403.377 401.031 403.377C404.594 403.377 413.481 384.256 420.255 362.015C436.837 307.568 441.664 264.972 435.168 230.407C431.63 211.591 431.654 210.748 435.952 203.461C444.055 189.723 446.973 177.495 449.325 147.395C451.544 118.999 452.095 116.713 460.901 99.4395C471.196 79.2453 471.579 73.1012 462.605 72.0589C453.733 71.0277 441.785 82.6883 435.921 98.099C431.795 108.937 430.982 116.24 430.507 146.718C429.98 180.523 427.096 198.494 422.982 193.596C422.037 192.471 415.594 184.489 408.663 175.859C375.237 134.231 319.151 86.5797 292.517 77.1808C279.489 72.5811 278.801 72.886 283.54 81.1529C291.547 95.12 291.376 97.4445 281.416 110.049C276.329 116.484 270.1 125.856 267.572 130.873C265.044 135.889 262.654 140.357 262.261 140.798C261.867 141.242 258.461 139.406 254.694 136.723C247.01 131.252 246.296 126.742 251.232 114.92C253.096 110.457 254.358 106.554 254.033 106.252C251.425 103.811 229.987 118.452 214.055 133.556C191.38 155.052 186.97 156.444 151.659 153.246C139.856 152.174 118.237 151.244 103.618 151.175L77.0349 151.049L67.2514 138.102C55.0053 121.898 50.6604 107.507 50.6111 82.9865C50.5618 58.9009 45.9501 36.7252 37.9235 21.9735C26.7463 1.4274 9.96922 -6.26114 2.19805 5.60118ZM20.8955 5.54066C23.5665 7.41236 28.037 12.2026 30.8313 16.1881C34.2217 21.0276 34.6362 22.4106 32.075 20.3573C27.5776 16.7462 27.3782 17.5913 30.7282 26.089C32.9556 31.74 33.3836 31.9507 34.8132 28.093C36.1398 24.5177 37.0608 25.4121 40.2428 33.3696C45.3406 46.1128 47.5927 62.66 44.2314 62.66C40.4377 62.66 41.1525 73.1841 45.0471 74.6792C46.8958 75.3876 48.4083 78.6289 48.4083 81.8836C48.4083 86.2188 47.512 87.4516 45.0471 86.5057C42.5979 85.5665 41.6164 86.8688 41.4259 91.3093C41.2511 95.4024 40.8187 96.0614 40.1106 93.3178C39.4271 90.6772 37.798 89.7111 35.5057 90.5898C28.1401 93.4186 25.2494 77.869 32.429 74.0247C34.7303 72.7918 37.2513 72.422 38.0311 73.1998C38.8086 73.9776 39.445 70.9157 39.445 66.3967C39.445 58.3472 35.1359 54.373 34.7864 62.0996C34.681 64.442 34.1544 64.8948 33.48 63.2204C32.857 61.6804 31.3176 60.4184 30.056 60.4184C28.7944 60.4184 28.3216 61.8799 29.0073 63.6665C29.8409 65.8385 29.1776 66.502 27.0062 65.6682C25.2203 64.9823 23.7593 64.1506 23.7593 63.8189C23.7593 63.4894 21.2204 57.473 18.1146 50.4525C15.0111 43.4319 13.4985 38.3212 14.7534 39.099C17.5365 40.8183 17.7068 35.8084 15.0111 31.5517C13.9355 29.8526 11.986 29.1241 10.6773 29.9333C7.37659 31.9731 3.51789 23.9483 3.15488 14.2895C2.71568 2.61094 10.9305 -1.44179 20.8955 5.54066ZM13.0011 21.7516C18.2916 32.6164 20.286 35.7613 21.8792 35.7613C24.5099 35.7613 24.2545 34.255 20.3398 26.683C18.4597 23.0472 15.8559 20.0704 14.5517 20.0704C13.2476 20.0704 12.5507 20.8258 13.0011 21.7516ZM21.5184 21.8838C21.5184 22.8813 22.9996 25.6541 24.808 28.0481C28.167 32.4909 29.3299 30.0028 26.8807 23.6166C25.4757 19.9539 21.5184 18.6739 21.5184 21.8838ZM254.132 33.4929L248.704 40.4305L244.563 35.8532C242.287 33.3382 238.217 31.2782 235.517 31.2782C229.938 31.2782 223.193 37.7204 223.193 43.0509C223.193 48.1639 233.24 59.4075 245.108 67.5757L255.304 74.5918L260.652 68.0666C271.487 54.8392 277.291 42.8917 276.562 35.3085C275.917 28.5816 275.117 27.8554 267.704 27.2344C260.852 26.6628 258.696 27.6559 254.132 33.4929ZM272.233 31.072C274.36 32.4192 274.844 35.0059 273.773 39.2761C272.036 46.2003 257.334 69.3847 254.683 69.3847C252.243 69.3847 236.23 57.3968 231.416 51.9655C226.516 46.4379 227.217 38.292 232.889 34.8692C236.306 32.807 238.027 33.6386 243.329 39.9172L249.677 47.4331L252.408 42.1587C258.698 30.0117 265 26.488 272.233 31.072ZM302.742 84.569C322.486 94.5775 345.607 113.187 371.434 139.855C420.197 190.202 427.217 200.749 432.627 231.781C437.442 259.41 436.938 278.616 430.563 310.07C424.439 340.288 408.982 390.842 403.747 397.773C400.469 402.112 400.359 402.052 400.289 395.852C400.164 384.691 407.429 348.6 410.521 345.013C412.155 343.119 415.047 337.842 416.95 333.29C420.103 325.74 420.078 324.241 416.65 316.328L412.892 307.649L405.121 312.923C400.847 315.824 395.649 318.197 393.569 318.197C390.347 318.197 389.22 323.382 385.932 353.307C381.587 392.868 377.375 415.129 371.903 427.469C366.659 439.289 365.572 432.593 368.579 407.028C372.261 375.743 374.186 314.122 371.354 318.197C369.559 320.777 364.17 321.56 348.204 321.56C336.755 321.56 324.644 320.791 321.289 319.852C316.321 318.46 315.432 318.783 316.505 321.582C317.231 323.474 317.112 332.622 316.243 341.913C314.683 358.546 314.569 358.794 308.7 358.115L302.742 357.425L301.308 295.782C299.779 230.102 296.205 199.637 288.759 188.779C286.42 185.372 283.332 178.548 281.896 173.617C279.561 165.603 275.85 158.805 267.711 147.626C266.255 145.624 265.75 141.491 266.566 138.241C267.875 133.022 268.823 132.563 275.91 133.713C289.826 135.972 297.704 123.747 288.358 114.397C284.121 110.159 284.121 110.042 288.358 106.204C293.519 101.535 293.763 96.5456 289.355 85.9924C286.11 78.2209 286.14 78.1133 291.036 79.6241C293.776 80.4692 299.044 82.695 302.742 84.569ZM41.2668 99.1256C43.3463 98.359 45.6118 96.8998 46.2997 95.8844C46.9899 94.8689 48.5428 100.02 49.7528 107.332C50.9606 114.642 51.1533 120.131 50.1786 119.528C49.2061 118.928 48.3277 119.755 48.2313 121.369C48.0946 123.621 47.7921 123.653 46.9249 121.505C46.2504 119.833 43.7407 119.223 40.6932 119.988C36.3841 121.07 35.3757 120.196 34.2127 114.379C33.4553 110.591 33.5203 104.212 34.3606 100.206C35.2547 95.9359 36.216 94.4924 36.6843 96.7205C37.2132 99.222 38.775 100.042 41.2668 99.1256ZM448.68 109.206C450.439 110.354 450.641 114.929 449.346 124.303C448.324 131.7 446.497 148.198 445.287 160.966C443.627 178.497 441.606 187.21 437.03 196.562C431.894 207.066 430.637 208.343 428.759 204.985C427.249 202.289 427.424 198.442 429.304 192.926C430.823 188.47 432.524 168.686 433.086 148.96C433.649 129.234 434.518 111.835 435.02 110.293C436.01 107.245 444.622 106.561 448.68 109.206ZM248.944 113.655C248.055 115.814 246.495 121.057 245.478 125.307C243.929 131.792 244.368 133.554 248.205 136.241C251.765 138.736 252.122 139.855 249.816 141.28C248.185 142.287 247.555 143.816 248.413 144.674C249.271 145.533 251.512 144.961 253.39 143.401C257.39 140.079 258.044 143.461 254.154 147.353C252.695 148.812 252.207 150.713 253.07 151.576C253.932 152.439 255.832 151.95 257.291 150.491C261.181 146.6 264.563 147.254 261.242 151.255C257.56 155.691 260.159 158.292 264.594 154.609C268.594 151.287 269.248 154.669 265.358 158.561C261.78 162.14 264.845 164.846 268.778 161.58C272.578 158.426 275.137 161.129 278.888 172.27C283.164 184.968 281.956 190.142 269.13 214.061L256.805 237.046L256.803 294.995C256.8 370.5 252.126 421.556 244.268 431.916C241.715 435.281 241.233 429.782 241.068 395.531C240.962 373.34 239.571 346.609 237.975 336.13C235.88 322.369 235.759 316.619 237.538 315.429C241.814 312.569 236.001 313.69 223.193 318.197C209.831 322.898 196.303 324.028 196.303 320.439C196.303 319.206 195.433 318.197 194.373 318.197C192.206 318.197 192.24 318.475 198.653 353.724C201.197 367.718 206.752 390.243 210.996 403.782C219.934 432.306 220.564 436.827 214.958 432.23C209.015 427.359 193.204 391.472 182.844 359.337L173.341 329.867L156.922 327.426C147.892 326.081 134.909 322.237 128.07 318.881C116.081 312.999 115.629 312.455 115.532 303.722C115.476 298.739 113.959 291.635 112.158 287.936C108.586 280.598 108.574 279.887 112.357 300.767C113.569 307.46 112.489 312.065 106.907 323.994C103.08 332.178 99.9473 341.66 99.9473 345.067C99.9473 355.833 105.962 368.924 121.105 391.109C129.188 402.951 135.8 413.607 135.8 414.791C135.8 418.848 123.333 410.489 113.213 399.649C91.0019 375.857 72.0871 342.63 59.8051 305.824C39.1694 243.995 39.0775 196.88 59.543 172.138C71.0384 158.24 100.797 146.873 105.549 154.564C107.432 157.608 115.059 157.408 116.099 154.288C116.671 152.573 120.128 152.322 126.929 153.497C132.424 154.447 135.662 155.664 134.12 156.202C129.183 157.924 131.124 161.288 137.053 161.288C140.479 161.288 142.202 160.343 141.338 158.939C140.365 157.368 144.948 156.812 155.208 157.258C166.002 157.729 170.367 158.756 169.973 160.728C169.626 162.465 171.938 163.53 176.066 163.53C181.058 163.53 182.396 162.692 181.428 160.168C180.604 158.018 181.468 156.805 183.828 156.805C191.068 156.805 205.011 147.783 213.176 137.817C220.038 129.44 245.498 109.733 249.457 109.733C250.065 109.733 249.834 111.497 248.944 113.655ZM314.677 115.792C311.044 119.952 306.103 128.649 306.103 130.88C306.103 131.577 308.992 132.148 312.523 132.148C321.123 132.148 331.196 124.07 330.313 117.881C329.417 111.58 319.508 110.255 314.677 115.792ZM48.9685 126.952C51.1242 126.934 52.89 125.843 52.89 124.529C52.89 123.216 55.5498 126.159 58.799 131.068C62.0505 135.977 67.7623 143.239 71.4933 147.207C77.4539 153.544 77.8079 154.602 74.3974 155.911C65.824 159.202 43.8505 141.195 42.5934 129.846C42.1183 125.565 42.4769 123.169 43.3889 124.525C44.3009 125.879 46.8129 126.973 48.9685 126.952ZM330.918 130.828C327.364 135.112 331.223 137.183 337.829 134.536C342.519 132.657 342.599 132.413 338.595 132.256C334.869 132.11 334.68 131.713 337.475 129.907C340.399 128.017 340.363 127.73 337.188 127.699C335.182 127.681 332.361 129.089 330.918 130.828ZM333.596 140.426C335.776 140.996 338.801 140.958 340.318 140.343C341.835 139.729 340.052 139.265 336.354 139.31C332.657 139.355 331.415 139.857 333.596 140.426ZM306.549 144.661C304.14 147.333 304.237 148.124 307.109 149.227C309.021 149.96 310.585 152.024 310.585 153.815C310.585 155.606 309.576 156.447 308.344 155.685C307.111 154.922 306.103 155.369 306.103 156.673C306.103 157.978 307.616 159.047 309.464 159.047C311.313 159.047 312.826 157.534 312.826 155.685C312.826 153.835 314.215 152.322 315.913 152.322C317.61 152.322 320.254 150.809 321.789 148.96C323.548 146.839 323.698 145.598 322.194 145.598C320.886 145.598 319.104 146.743 318.239 148.144C317.18 149.861 315.492 149.182 313.065 146.059C309.957 142.063 309.065 141.87 306.549 144.661ZM286.577 156.245C281.127 161.784 282.704 163.026 289.176 158.292C291.43 156.642 292.884 154.373 292.407 153.248C291.928 152.123 289.306 153.472 286.577 156.245ZM99.9473 161.288C99.9473 162.521 102.025 163.53 104.561 163.53C107.098 163.53 108.552 162.521 107.79 161.288C107.028 160.056 104.953 159.047 103.176 159.047C101.399 159.047 99.9473 160.056 99.9473 161.288ZM225.501 161.488C225.465 163.449 228.001 166.222 231.141 167.652C238.103 170.826 238.878 170.862 238.878 168.013C238.878 166.78 236.911 165.772 234.509 165.772C232.104 165.772 229.111 164.008 227.854 161.849C225.911 158.509 225.559 158.457 225.501 161.488ZM129.078 165.772C129.078 167.004 132.164 168.013 135.933 168.013C139.933 168.013 142.211 167.078 141.403 165.772C140.641 164.539 137.557 163.53 134.548 163.53C131.538 163.53 129.078 164.539 129.078 165.772ZM291.406 167.076C287.91 169.923 287.8 170.389 290.836 169.441C293.189 168.708 294.998 169.699 295.618 172.059C296.196 174.249 296.73 173.247 296.88 169.694C297.185 162.485 297.093 162.441 291.406 167.076ZM96.586 168.013C97.3479 169.246 99.9876 170.255 102.453 170.255C104.917 170.255 106.311 169.246 105.549 168.013C104.787 166.78 102.148 165.772 99.6829 165.772C97.218 165.772 95.8242 166.78 96.586 168.013ZM164.931 168.421C164.931 171.288 176.279 173.249 178.721 170.806C180.24 169.286 178.347 168.24 172.956 167.61C168.543 167.094 164.931 167.46 164.931 168.421ZM299.735 172.496C299.735 175.578 300.243 176.84 300.864 175.298C301.487 173.758 301.487 171.237 300.864 169.694C300.243 168.154 299.735 169.414 299.735 172.496ZM92.1044 176.979C92.8663 178.212 96.0102 179.221 99.0913 179.221C102.255 179.221 104.091 178.246 103.309 176.979C102.547 175.747 99.4028 174.738 96.3216 174.738C93.1576 174.738 91.3223 175.713 92.1044 176.979ZM124.596 176.979C124.596 178.212 127.621 179.221 131.319 179.221C135.016 179.221 138.041 178.212 138.041 176.979C138.041 175.747 135.016 174.738 131.319 174.738C127.621 174.738 124.596 175.747 124.596 176.979ZM162.69 176.937C162.69 178.192 165.884 179.221 169.787 179.221C177.946 179.221 177.65 178.241 168.853 176.132C165.193 175.253 162.69 175.581 162.69 176.937ZM88.7432 183.704C88.7432 184.937 92.333 185.946 96.7182 185.946C101.464 185.946 104.133 185.038 103.309 183.704C102.547 182.471 98.9591 181.463 95.3334 181.463C91.7078 181.463 88.7432 182.471 88.7432 183.704ZM160.45 183.182C160.45 186.233 172.252 188.349 174.903 185.773C176.232 184.482 175.813 183.693 173.782 183.673C171.997 183.657 168.263 183.034 165.491 182.292C162.719 181.548 160.45 181.949 160.45 183.182ZM237.449 184.825C238.997 188.862 236.337 189.232 232.604 185.497C227.661 180.552 229.843 186.358 234.957 191.756C240.053 197.133 245.601 198.877 245.601 195.098C245.601 193.968 244.342 192.455 242.8 191.736C240.577 190.698 240.572 190.16 242.78 189.129C244.926 188.124 244.835 187.1 242.381 184.646C238.231 180.494 235.82 180.582 237.449 184.825ZM123.476 185.946C124.238 187.178 127.825 188.187 131.451 188.187C135.077 188.187 138.041 187.178 138.041 185.946C138.041 184.713 134.451 183.704 130.066 183.704C125.32 183.704 122.651 184.612 123.476 185.946ZM256.805 185.547C256.805 186.943 259.377 189.77 262.521 191.832C266.826 194.652 268.874 194.943 270.812 193.004C272.751 191.065 272.352 190.429 269.195 190.429C266.889 190.429 263.158 188.759 260.903 186.719C258.544 184.583 256.805 184.085 256.805 185.547ZM86.5023 190.146C86.5023 193.717 97.5832 195.932 100.559 192.955C102.432 191.081 101.859 190.429 98.3384 190.429C95.7278 190.429 91.9968 189.817 90.0473 189.068C88.0978 188.319 86.5023 188.806 86.5023 190.146ZM161.57 192.67C162.332 193.903 165.415 194.912 168.425 194.912C171.434 194.912 173.894 193.903 173.894 192.67C173.894 191.437 170.809 190.429 167.04 190.429C163.04 190.429 160.761 191.363 161.57 192.67ZM123.395 195.042C122.792 196.017 124.079 197.277 126.25 197.844C129.981 198.819 129.981 198.888 126.277 199.135C119.49 199.585 122.026 203.878 129.078 203.878C132.775 203.878 135.8 202.869 135.8 201.637C135.8 200.404 134.541 199.379 132.999 199.361C130.915 199.334 130.967 198.839 133.206 197.42C135.397 196.03 134.624 195.21 130.351 194.392C127.126 193.775 123.996 194.069 123.395 195.042ZM86.5023 198.893C86.5023 202.053 96.0841 204.156 98.6767 201.563C100.073 200.166 99.5529 199.395 97.218 199.395C95.2236 199.395 91.9968 198.783 90.0473 198.034C88.0978 197.286 86.5023 197.673 86.5023 198.893ZM162.69 201.637C162.69 202.869 165.715 203.878 169.413 203.878C173.11 203.878 176.135 202.869 176.135 201.637C176.135 200.404 173.11 199.395 169.413 199.395C165.715 199.395 162.69 200.404 162.69 201.637ZM337.475 203.746C337.475 204.907 338.472 206.472 339.691 207.225C340.959 208.009 341.336 207.11 340.571 205.115C339.081 201.233 337.475 200.522 337.475 203.746ZM122.356 210.56C122.356 211.815 125.549 212.844 129.452 212.844C137.611 212.844 137.315 211.865 128.518 209.755C124.859 208.877 122.356 209.204 122.356 210.56ZM163.811 210.603C164.573 211.836 167.152 212.844 169.545 212.844C171.938 212.844 173.894 211.836 173.894 210.603C173.894 209.37 171.313 208.361 168.16 208.361C164.909 208.361 163.024 209.332 163.811 210.603ZM328.511 212.977C328.511 215.514 329.52 216.969 330.752 216.207C331.985 215.445 332.993 213.369 332.993 211.591C332.993 209.814 331.985 208.361 330.752 208.361C329.52 208.361 328.511 210.439 328.511 212.977ZM124.596 219.807C124.596 222.647 133.86 224.648 136.195 222.313C137.613 220.894 135.964 219.773 131.487 219.116C127.698 218.56 124.596 218.87 124.596 219.807ZM348.679 220.69C348.679 222.539 349.656 224.052 350.85 224.052C352.042 224.052 352.439 222.539 351.731 220.69C351.02 218.84 350.043 217.327 349.559 217.327C349.075 217.327 348.679 218.84 348.679 220.69ZM337.829 226.294C337.829 229.376 338.337 230.638 338.958 229.096C339.581 227.556 339.581 225.034 338.958 223.492C338.337 221.952 337.829 223.212 337.829 226.294ZM342.31 228.535C342.31 231.617 342.819 232.879 343.44 231.337C344.063 229.797 344.063 227.275 343.44 225.733C342.819 224.193 342.31 225.453 342.31 228.535ZM128.63 228.983C130.721 231.075 131.917 231.075 134.008 228.983C136.098 226.892 135.502 226.294 131.319 226.294C127.135 226.294 126.539 226.892 128.63 228.983ZM328.688 234.325C328.796 236.937 329.327 237.468 330.042 235.681C330.689 234.063 330.609 232.128 329.865 231.384C329.121 230.64 328.592 231.963 328.688 234.325ZM326.448 250.016C326.555 252.627 327.086 253.159 327.801 251.372C328.449 249.754 328.368 247.819 327.624 247.075C326.88 246.331 326.351 247.653 326.448 250.016ZM344.197 260.531C344.197 263.748 345.246 267.025 346.528 267.818C348.056 268.762 348.334 267.072 347.332 262.907C345.27 254.318 344.197 253.506 344.197 260.531ZM333.43 263.279C333.475 266.978 333.977 268.22 334.546 266.039C335.115 263.858 335.077 260.832 334.463 259.314C333.849 257.796 333.385 259.581 333.43 263.279ZM362.124 268.619C362.124 269.852 363.132 271.483 364.365 272.246C365.597 273.008 366.605 272.622 366.605 271.389C366.605 270.156 365.597 268.525 364.365 267.762C363.132 267 362.124 267.386 362.124 268.619ZM352.52 280.127C354.254 286.757 357.176 287.627 355.937 281.145C355.354 278.098 354.081 275.608 353.109 275.608C352.136 275.608 351.87 277.641 352.52 280.127ZM321.789 282.333C321.789 284.798 322.703 286.816 323.819 286.816C324.937 286.816 325.323 284.798 324.68 282.333C324.034 279.867 323.12 277.849 322.647 277.849C322.177 277.849 321.789 279.867 321.789 282.333ZM79.2622 293.442C77.7138 298.958 78.6393 302.152 81.0818 299.711C81.7966 298.994 82.0297 296.053 81.5949 293.173L80.8084 287.936L79.2622 293.442ZM85.9421 290.337C85.0167 291.276 84.2615 295.105 84.2615 298.846C84.2615 303.708 84.9494 304.957 86.6771 303.228C88.0059 301.899 88.7633 298.071 88.3577 294.719C87.9544 291.368 86.8676 289.396 85.9421 290.337ZM91.0557 298.716C91.0131 302.356 91.9296 304.428 93.2248 303.627C94.4573 302.865 95.4656 303.311 95.4656 304.616C95.4656 305.92 96.474 306.99 97.7065 306.99C98.9389 306.99 99.8308 303.71 99.6873 299.705C99.5417 295.607 98.9658 294.206 98.372 296.504C97.3502 300.453 97.2157 300.453 94.222 296.504C91.3515 292.718 91.1207 292.879 91.0557 298.716ZM104.586 295.222C104.673 296.145 105.61 298.92 106.67 301.386C108.377 305.358 108.613 305.167 108.754 299.705C108.839 296.315 107.902 293.54 106.67 293.54C105.437 293.54 104.501 294.298 104.586 295.222ZM336.365 295.764C335.61 296.988 336.023 299.761 337.284 301.928C339.254 305.309 339.59 304.992 339.648 299.705C339.718 293.258 338.682 292.014 336.365 295.764ZM344.197 295.517C344.197 296.75 345.205 298.382 346.438 299.144C347.67 299.906 348.679 299.521 348.679 298.288C348.679 297.055 347.67 295.423 346.438 294.661C345.205 293.899 344.197 294.285 344.197 295.517ZM364.365 311.473C364.365 313.939 365.373 315.956 366.605 315.956C367.838 315.956 368.846 313.939 368.846 311.473C368.846 309.007 367.838 306.99 366.605 306.99C365.373 306.99 364.365 309.007 364.365 311.473ZM328.511 311.341C328.511 312.502 329.509 314.066 330.728 314.819C331.996 315.604 332.372 314.705 331.608 312.71C330.118 308.828 328.511 308.117 328.511 311.341ZM346.438 311.208C346.438 312.441 347.446 314.073 348.679 314.835C349.911 315.597 350.92 315.212 350.92 313.979C350.92 312.746 349.911 311.114 348.679 310.352C347.446 309.59 346.438 309.975 346.438 311.208ZM134.12 324.317C136.278 324.938 138.059 326.083 138.079 326.866C138.254 333.243 146.225 364.046 152.837 383.895C164.669 419.417 159.222 419.635 142.402 384.312C134.413 367.534 122.356 330.842 122.356 323.31C122.356 320.997 123.57 320.459 126.277 321.573C128.435 322.463 131.962 323.696 134.12 324.317ZM84.2615 329.538C84.2615 332.075 85.2699 333.53 86.5023 332.768C87.7348 332.005 88.7432 329.93 88.7432 328.152C88.7432 326.375 87.7348 324.922 86.5023 324.922C85.2699 324.922 84.2615 327 84.2615 329.538ZM97.0745 330.93C95.5261 338.995 96.6264 340.097 99.9742 333.839C101.659 330.69 101.83 328.15 100.447 326.767C99.0644 325.384 97.8521 326.879 97.0745 330.93ZM360.586 342.086C356.562 363.405 347.677 391.907 343.216 397.813C338.761 403.706 338.886 400.407 343.993 377.014C346.346 366.241 348.981 350.868 349.851 342.855C351.74 325.431 351.988 324.922 358.626 324.922H363.827L360.586 342.086ZM90.1033 330.71C88.1516 335.798 88.4272 338.831 90.7128 337.419C93.3727 335.774 95.506 327.164 93.2539 327.164C92.2702 327.164 90.8518 328.76 90.1033 330.71Z" fill="#C5A9C8"/>
</svg>
